<svg version="1.1" viewBox="0 0 17.495 32.755" xmlns="http://www.w3.org/2000/svg"><path d="m10.555 0-0.11914 0.019531-0.12109 0.019531-0.11914 0.041016c-0.033333 0.013333-0.069375 0.030781-0.10937 0.050781-0.033334 0.013333-0.071329 0.031927-0.11133 0.058594-0.033333 0.02-0.066276 0.043646-0.099609 0.070312-0.033333 0.02-0.063177 0.046745-0.089844 0.080078-0.026667 0.026667-0.05651 0.053411-0.089844 0.080078-0.026667 0.033333-0.050312 0.066276-0.070312 0.099609-0.026667 0.033333-0.050312 0.066276-0.070312 0.099609-0.02 0.04-0.035495 0.077995-0.048828 0.11133-1.7067 3.76-2.6613 7.6057-2.8613 11.539-0.24687 4.84 0.47906 10.395 2.1758 16.666l-6.9551-3.9453c-0.033333-0.02-0.069375-0.037448-0.10938-0.050781-0.033333-0.02-0.071328-0.032396-0.11133-0.039062l-0.11914-0.041016-0.12109-0.019531c-0.04-0.006667-0.079141-0.009766-0.11914-0.009766-0.04 0-0.084193 0.003099-0.13086 0.009766-0.04 0-0.079141 0.003099-0.11914 0.009765-0.04 0.006667-0.081094 0.017917-0.12109 0.03125-0.04 0.006667-0.076042 0.019063-0.10938 0.039063-0.04 0.013333-0.079141 0.030781-0.11914 0.050781-0.033333 0.013333-0.066276 0.031927-0.099609 0.058594-0.033333 0.02-0.068229 0.043646-0.10156 0.070312-0.033333 0.02-0.066276 0.046745-0.099609 0.080079-0.026667 0.026666-0.053411 0.05651-0.080078 0.089843-0.026667 0.026667-0.053411 0.056511-0.080078 0.089844-0.02 0.033333-0.040547 0.071328-0.060547 0.11133-0.02 0.033333-0.038594 0.069375-0.058594 0.10938-0.013333 0.033333-0.027682 0.069375-0.041016 0.10938s-0.02263 0.081094-0.029297 0.12109c-0.013333 0.04-0.019531 0.079141-0.019531 0.11914-0.0066667 0.04-0.0097656 0.081093-0.0097656 0.12109-0.0066667 0.04-0.0066667 0.079141 0 0.11914 0 0.046667 0.003099 0.090859 0.0097656 0.13086 0.013333 0.04 0.02263 0.079141 0.029297 0.11914 0.013333 0.04 0.027682 0.076042 0.041016 0.10938 0.013333 0.04 0.028828 0.077995 0.048828 0.11133 0.02 0.04 0.040547 0.076042 0.060547 0.10938s0.043646 0.066276 0.070312 0.099609c0.026667 0.033334 0.053411 0.063177 0.080078 0.089844 0.026667 0.033333 0.05651 0.063177 0.089844 0.089844 0.033333 0.026667 0.066276 0.050312 0.099609 0.070312 0.033333 0.026667 0.066276 0.050313 0.099609 0.070313l9.5703 5.4199c0.033328 0.019996 0.069383 0.04055 0.10938 0.060547 0.039992 0.01333 0.078 0.025732 0.11133 0.039062 0.039993 0.013331 0.079148 0.024583 0.11914 0.03125 0.039993 0.013331 0.079147 0.02263 0.11914 0.029297h0.13086c0.009998 0.001666 0.019299 0.003073 0.029297 0.003906 0.019995 0.001667 0.040551 0.001665 0.060547 0 0.009999-8.33e-4 0.019297-0.00224 0.029296-0.003906 0.019996 0 0.040552-2.87e-4 0.060547-0.001953 0.019998-0.001666 0.04055-0.00448 0.060547-0.007813 0.039993-0.006665 0.079148-0.015967 0.11914-0.029296l0.12109-0.041016c0.033327-0.013331 0.069383-0.030786 0.10938-0.050781 0.033327-0.019997 0.069383-0.038598 0.10938-0.058594 0.033326-0.019996 0.068236-0.043653 0.10156-0.070313 0.026664-0.026663 0.056515-0.053414 0.089844-0.080078 0.026661-0.026661 0.053417-0.056518 0.080078-0.089844 0.026664-0.026663 0.053414-0.056514 0.080078-0.089843 0.019996-0.039992 0.038598-0.078001 0.058594-0.11133l0.035156-0.060547c0.0027-0.005018 0.005112-0.010486 0.007813-0.015625l5.3887-9.4922c0.019999-0.033333 0.035494-0.071328 0.048828-0.11133 0.02-0.033333 0.037448-0.069375 0.050781-0.10938s0.02263-0.07914 0.029297-0.11914l0.019531-0.12109c0.006667-0.04 0.009766-0.079141 0.009766-0.11914v-0.13086l-0.019532-0.11914c-0.006666-0.04-0.015963-0.081094-0.029297-0.12109-0.006666-0.04-0.017916-0.076041-0.03125-0.10938-0.019999-0.04-0.035494-0.081093-0.048828-0.12109l-0.060546-0.09961c-0.026667-0.04-0.053412-0.072942-0.080079-0.099609-0.02-0.033333-0.046744-0.066276-0.080078-0.09961l-0.080078-0.080078-0.099609-0.080078-0.09961-0.060547c-0.04-0.02-0.076041-0.040546-0.10938-0.060547l-0.12109-0.039062-0.11914-0.039062-0.12109-0.021485c-0.04 0-0.07914-0.003099-0.11914-0.009765-0.04-1e-6 -0.081094 0.003098-0.12109 0.009765-0.04 0-0.079141 0.003099-0.11914 0.009766-0.04 0.006666-0.081093 0.017916-0.12109 0.03125l-0.11914 0.039062c-0.04 0.013334-0.076042 0.030781-0.10938 0.050781-0.04 0.02-0.077995 0.040547-0.11133 0.060547-0.033334 0.02-0.066276 0.041693-0.09961 0.06836-0.033333 0.026666-0.063177 0.053411-0.089843 0.080078-0.033334 0.026667-0.063177 0.05651-0.089844 0.089844-0.026667 0.026666-0.050313 0.061562-0.070313 0.10156-0.026666 0.033333-0.050312 0.066276-0.070312 0.099609l-3.9277 6.9355c-1.6214-5.9984-2.3155-11.286-2.082-15.865 0.18-3.6133 1.0575-7.1575 2.6309-10.631v-0.0097656c0.02-0.033333 0.035494-0.069375 0.048828-0.10938 0.013333-0.04 0.024583-0.081094 0.03125-0.12109 0.013333-0.04 0.019531-0.079141 0.019531-0.11914 0.006667-0.04 0.009766-0.081094 0.009766-0.12109v-0.11914c0-0.04-0.003099-0.084193-0.009766-0.13086-0.006667-0.04-0.015964-0.079141-0.029297-0.11914-0.006667-0.033333-0.021016-0.069375-0.041015-0.10938-0.013334-0.04-0.02573-0.077995-0.039063-0.11133-0.02-0.04-0.040547-0.076042-0.060547-0.10938-0.026667-0.033333-0.050312-0.066276-0.070312-0.099609l-0.080078-0.099609c-0.033334-0.026667-0.063178-0.053411-0.089844-0.080078l-0.09961-0.080078-0.099609-0.060547c-0.033333-0.02-0.071328-0.037448-0.11133-0.050781-0.04-0.02-0.076042-0.032396-0.10938-0.039062l-0.11914-0.041016-0.12109-0.019531c-0.04-0.0066667-0.08224-0.0097656-0.12891-0.0097656h-0.12109z" fill="#f9c"/></svg>
