<svg version="1.1" viewBox="0 0 33.771 26.228" viewbox="0 0 33.77 26.228" xmlns="http://www.w3.org/2000/svg"><path d="m21.01 13.719q-0.29325 0.77618-0.48601 1.1498-0.19838 0.36663-0.52317 0.72604-0.3795 0.86867-0.87883 1.4319-0.50494 0.55629-1.269 1.0975l-1.2343 0.83408-0.79223 0.09297q-0.0029-0.21018-0.22079-0.60881-0.21792-0.39863-0.23429-0.48307-0.28932-0.44446-0.68407-1.2691-0.39475-0.82465-0.97033-2.2157-0.43617-1.2679-0.70819-1.755-0.2783-0.4878-0.34294-0.59649-0.37932-0.61312-0.33188-0.81789l0.01081-0.1006q0.01688-0.15718 0.19095-0.29747 0.1644-0.10953 0.28099-0.30688 0.11031-0.19802 0.19028-0.29118 0.07367-0.09384 0.19942-0.08033 0.04759 0.03055 0.21709 0.16959 0.17017 0.13275 0.25456 0.29445l0.30584 0.76422q0.41372 1.2401 1.3273 3.2143l0.43804 1.0137q0.32829 0.79207 0.55432 1.1153 0.22603 0.32319 0.56465 0.30868 0.54054-0.17724 1.3191-1.3274 0.77299-1.1571 1.5747-3.0552 0.29595-0.80133 0.66481-1.3341 0.36886-0.53275 0.65178-0.50236 0.15718 0.01689 0.25793 0.26302 0.02603 0.05367 0.06974 0.35728 0.04369 0.3036-0.0063 0.76885-0.04998 0.46525-0.20325 0.94484z" fill="#f9c"/><path d="m16.952 4.348s7.0224 1.0717 11.634 4.0298c3.9189 2.5138 4.6514 6.4216 4.3812 8.1694-0.73877 4.7797-8.692 11.534-20.905 7.901-5.2957-1.5752-8.3218-4.4659-10.295-8.3679-1.059-2.0945-1.3036-5.2793-0.58284-7.2252 1.2464-3.3649 4.2236-5.7172 7.0259-6.8967 4.1411-1.7429 9.2156-1.3845 14.065-0.24223" fill="none" stroke="#f9c" stroke-linecap="round" stroke-linejoin="round" stroke-width="1.5"/></svg>
