<svg version="1.1" viewBox="0 0 1328.8 344.43" xmlns="http://www.w3.org/2000/svg"><path d="m1 288.3c11.823-4.8263 93.21-36.595 112.52-5.1206 10.912 17.783-17.557 29.695-9.8705 47.312 4.3993 10.084 21.95 11.597 48.471 11.499m66.013-2.6449c54.64-4.2536 135.04-18.367 145.62-53.094s-33.721-34.46-12.892-66.27c12.383-18.911 54.87-25.168 94.643-24.892m66.918 5.8545c23.755 2.5132 58.291-2.8235 66.488-15.88s-4.3629-24.082 24.95-34.296c54.346-18.936 160.32 3.0033 221.24 14.262m70.844 10.543c16.98 1.5482 32.425 1.8778 42.982-0.32974 24.762-4.3318 38.942-16.531 32.077-35.826-5.8174-14.061-9.6682-23.681-3.1079-32.752 14.849-20.532 38.714-19.71 57.152-17.257 20.01 1.9291 57.421 17.517 117.56 20.96m62.208 1.9737c49.662-1.0458 91.76-11.808 103.04-29.688 15.925-25.257-15.673-42.024-9.9265-59.725s29.925-21.936 29.925-21.936" fill="none" stroke="#f9c" stroke-linecap="round" stroke-linejoin="round" stroke-width="2"/></svg>
